<svg width="1120" height="110" viewBox="0 0 1120 110" fill="none" xmlns="http://www.w3.org/2000/svg">
<rect x="20" y="20" width="10" height="10" fill="#EF7D57"/>
<rect x="80" y="20" width="10" height="10" fill="#EF7D57"/>
<rect x="120" y="20" width="10" height="10" fill="#EF7D57"/>
<rect x="130" y="20" width="10" height="10" fill="#EF7D57"/>
<rect x="140" y="20" width="10" height="10" fill="#EF7D57"/>
<rect x="180" y="20" width="10" height="10" fill="#EF7D57"/>
<rect x="240" y="20" width="10" height="10" fill="#EF7D57"/>
<rect x="300" y="20" width="10" height="10" fill="#EF7D57"/>
<rect x="310" y="20" width="10" height="10" fill="#EF7D57"/>
<rect x="320" y="20" width="10" height="10" fill="#EF7D57"/>
<rect x="330" y="20" width="10" height="10" fill="#EF7D57"/>
<rect x="340" y="20" width="10" height="10" fill="#EF7D57"/>
<rect x="380" y="20" width="10" height="10" fill="#EF7D57"/>
<rect x="390" y="20" width="10" height="10" fill="#EF7D57"/>
<rect x="400" y="20" width="10" height="10" fill="#EF7D57"/>
<rect x="440" y="20" width="10" height="10" fill="#EF7D57"/>
<rect x="450" y="20" width="10" height="10" fill="#EF7D57"/>
<rect x="460" y="20" width="10" height="10" fill="#EF7D57"/>
<rect x="470" y="20" width="10" height="10" fill="#EF7D57"/>
<rect x="500" y="20" width="10" height="10" fill="#EF7D57"/>
<rect x="510" y="20" width="10" height="10" fill="#EF7D57"/>
<rect x="520" y="20" width="10" height="10" fill="#EF7D57"/>
<rect x="530" y="20" width="10" height="10" fill="#EF7D57"/>
<rect x="540" y="20" width="10" height="10" fill="#EF7D57"/>
<rect x="550" y="20" width="10" height="10" fill="#EF7D57"/>
<rect x="560" y="20" width="10" height="10" fill="#EF7D57"/>
<rect x="580" y="20" width="10" height="10" fill="#EF7D57"/>
<rect x="590" y="20" width="10" height="10" fill="#EF7D57"/>
<rect x="600" y="20" width="10" height="10" fill="#EF7D57"/>
<rect x="610" y="20" width="10" height="10" fill="#EF7D57"/>
<rect x="630" y="20" width="10" height="10" fill="#EF7D57"/>
<rect x="640" y="20" width="10" height="10" fill="#EF7D57"/>
<rect x="650" y="20" width="10" height="10" fill="#EF7D57"/>
<rect x="660" y="20" width="10" height="10" fill="#EF7D57"/>
<rect x="740" y="20" width="10" height="10" fill="#EF7D57"/>
<rect x="750" y="20" width="10" height="10" fill="#EF7D57"/>
<rect x="760" y="20" width="10" height="10" fill="#EF7D57"/>
<rect x="770" y="20" width="10" height="10" fill="#EF7D57"/>
<rect x="800" y="20" width="10" height="10" fill="#EF7D57"/>
<rect x="810" y="20" width="10" height="10" fill="#EF7D57"/>
<rect x="820" y="20" width="10" height="10" fill="#EF7D57"/>
<rect x="830" y="20" width="10" height="10" fill="#EF7D57"/>
<rect x="870" y="20" width="10" height="10" fill="#EF7D57"/>
<rect x="880" y="20" width="10" height="10" fill="#EF7D57"/>
<rect x="890" y="20" width="10" height="10" fill="#EF7D57"/>
<rect x="900" y="20" width="10" height="10" fill="#EF7D57"/>
<rect x="910" y="20" width="10" height="10" fill="#EF7D57"/>
<rect x="930" y="20" width="10" height="10" fill="#EF7D57"/>
<rect x="1010" y="20" width="10" height="10" fill="#EF7D57"/>
<rect x="1030" y="20" width="10" height="10" fill="#EF7D57"/>
<rect x="1040" y="20" width="10" height="10" fill="#EF7D57"/>
<rect x="1080" y="20" width="10" height="10" fill="#EF7D57"/>
<rect x="20" y="30" width="10" height="10" fill="#EF7D57"/>
<rect x="30" y="30" width="10" height="10" fill="#EF7D57"/>
<rect x="70" y="30" width="10" height="10" fill="#EF7D57"/>
<rect x="80" y="30" width="10" height="10" fill="#EF7D57"/>
<rect x="120" y="30" width="10" height="10" fill="#EF7D57"/>
<rect x="140" y="30" width="10" height="10" fill="#EF7D57"/>
<rect x="190" y="30" width="10" height="10" fill="#EF7D57"/>
<rect x="230" y="30" width="10" height="10" fill="#EF7D57"/>
<rect x="300" y="30" width="10" height="10" fill="#EF7D57"/>
<rect x="380" y="30" width="10" height="10" fill="#EF7D57"/>
<rect x="400" y="30" width="10" height="10" fill="#EF7D57"/>
<rect x="440" y="30" width="10" height="10" fill="#EF7D57"/>
<rect x="470" y="30" width="10" height="10" fill="#EF7D57"/>
<rect x="530" y="30" width="10" height="10" fill="#EF7D57"/>
<rect x="580" y="30" width="10" height="10" fill="#EF7D57"/>
<rect x="630" y="30" width="10" height="10" fill="#EF7D57"/>
<rect x="660" y="30" width="10" height="10" fill="#EF7D57"/>
<rect x="740" y="30" width="10" height="10" fill="#EF7D57"/>
<rect x="780" y="30" width="10" height="10" fill="#EF7D57"/>
<rect x="800" y="30" width="10" height="10" fill="#EF7D57"/>
<rect x="830" y="30" width="10" height="10" fill="#EF7D57"/>
<rect x="870" y="30" width="10" height="10" fill="#EF7D57"/>
<rect x="910" y="30" width="10" height="10" fill="#EF7D57"/>
<rect x="930" y="30" width="10" height="10" fill="#EF7D57"/>
<rect x="1010" y="30" width="10" height="10" fill="#EF7D57"/>
<rect x="1030" y="30" width="10" height="10" fill="#EF7D57"/>
<rect x="1040" y="30" width="10" height="10" fill="#EF7D57"/>
<rect x="1080" y="30" width="10" height="10" fill="#EF7D57"/>
<rect x="20" y="40" width="10" height="10" fill="#EF7D57"/>
<rect x="40" y="40" width="10" height="10" fill="#EF7D57"/>
<rect x="60" y="40" width="10" height="10" fill="#EF7D57"/>
<rect x="80" y="40" width="10" height="10" fill="#EF7D57"/>
<rect x="120" y="40" width="10" height="10" fill="#EF7D57"/>
<rect x="140" y="40" width="10" height="10" fill="#EF7D57"/>
<rect x="200" y="40" width="10" height="10" fill="#EF7D57"/>
<rect x="220" y="40" width="10" height="10" fill="#EF7D57"/>
<rect x="300" y="40" width="10" height="10" fill="#EF7D57"/>
<rect x="380" y="40" width="10" height="10" fill="#EF7D57"/>
<rect x="400" y="40" width="10" height="10" fill="#EF7D57"/>
<rect x="440" y="40" width="10" height="10" fill="#EF7D57"/>
<rect x="530" y="40" width="10" height="10" fill="#EF7D57"/>
<rect x="580" y="40" width="10" height="10" fill="#EF7D57"/>
<rect x="630" y="40" width="10" height="10" fill="#EF7D57"/>
<rect x="740" y="40" width="10" height="10" fill="#EF7D57"/>
<rect x="770" y="40" width="10" height="10" fill="#EF7D57"/>
<rect x="800" y="40" width="10" height="10" fill="#EF7D57"/>
<rect x="870" y="40" width="10" height="10" fill="#EF7D57"/>
<rect x="910" y="40" width="10" height="10" fill="#EF7D57"/>
<rect x="940" y="40" width="10" height="10" fill="#EF7D57"/>
<rect x="1000" y="40" width="10" height="10" fill="#EF7D57"/>
<rect x="1030" y="40" width="10" height="10" fill="#EF7D57"/>
<rect x="1050" y="40" width="10" height="10" fill="#EF7D57"/>
<rect x="1080" y="40" width="10" height="10" fill="#EF7D57"/>
<rect x="20" y="50" width="10" height="10" fill="#EF7D57"/>
<rect x="50" y="50" width="10" height="10" fill="#EF7D57"/>
<rect x="80" y="50" width="10" height="10" fill="#EF7D57"/>
<rect x="110" y="50" width="10" height="10" fill="#EF7D57"/>
<rect x="150" y="50" width="10" height="10" fill="#EF7D57"/>
<rect x="210" y="50" width="10" height="10" fill="#EF7D57"/>
<rect x="300" y="50" width="10" height="10" fill="#EF7D57"/>
<rect x="370" y="50" width="10" height="10" fill="#EF7D57"/>
<rect x="410" y="50" width="10" height="10" fill="#EF7D57"/>
<rect x="440" y="50" width="10" height="10" fill="#EF7D57"/>
<rect x="460" y="50" width="10" height="10" fill="#EF7D57"/>
<rect x="470" y="50" width="10" height="10" fill="#EF7D57"/>
<rect x="530" y="50" width="10" height="10" fill="#EF7D57"/>
<rect x="580" y="50" width="10" height="10" fill="#EF7D57"/>
<rect x="600" y="50" width="10" height="10" fill="#EF7D57"/>
<rect x="630" y="50" width="10" height="10" fill="#EF7D57"/>
<rect x="650" y="50" width="10" height="10" fill="#EF7D57"/>
<rect x="660" y="50" width="10" height="10" fill="#EF7D57"/>
<rect x="700" y="50" width="10" height="10" fill="#EF7D57"/>
<rect x="710" y="50" width="10" height="10" fill="#EF7D57"/>
<rect x="720" y="50" width="10" height="10" fill="#EF7D57"/>
<rect x="740" y="50" width="10" height="10" fill="#EF7D57"/>
<rect x="760" y="50" width="10" height="10" fill="#EF7D57"/>
<rect x="800" y="50" width="10" height="10" fill="#EF7D57"/>
<rect x="820" y="50" width="10" height="10" fill="#EF7D57"/>
<rect x="830" y="50" width="10" height="10" fill="#EF7D57"/>
<rect x="870" y="50" width="10" height="10" fill="#EF7D57"/>
<rect x="910" y="50" width="10" height="10" fill="#EF7D57"/>
<rect x="940" y="50" width="10" height="10" fill="#EF7D57"/>
<rect x="1000" y="50" width="10" height="10" fill="#EF7D57"/>
<rect x="1030" y="50" width="10" height="10" fill="#EF7D57"/>
<rect x="1050" y="50" width="10" height="10" fill="#EF7D57"/>
<rect x="1080" y="50" width="10" height="10" fill="#EF7D57"/>
<rect x="20" y="60" width="10" height="10" fill="#EF7D57"/>
<rect x="80" y="60" width="10" height="10" fill="#EF7D57"/>
<rect x="110" y="60" width="10" height="10" fill="#EF7D57"/>
<rect x="130" y="60" width="10" height="10" fill="#EF7D57"/>
<rect x="150" y="60" width="10" height="10" fill="#EF7D57"/>
<rect x="200" y="60" width="10" height="10" fill="#EF7D57"/>
<rect x="220" y="60" width="10" height="10" fill="#EF7D57"/>
<rect x="300" y="60" width="10" height="10" fill="#EF7D57"/>
<rect x="370" y="60" width="10" height="10" fill="#EF7D57"/>
<rect x="390" y="60" width="10" height="10" fill="#EF7D57"/>
<rect x="410" y="60" width="10" height="10" fill="#EF7D57"/>
<rect x="440" y="60" width="10" height="10" fill="#EF7D57"/>
<rect x="470" y="60" width="10" height="10" fill="#EF7D57"/>
<rect x="530" y="60" width="10" height="10" fill="#EF7D57"/>
<rect x="580" y="60" width="10" height="10" fill="#EF7D57"/>
<rect x="630" y="60" width="10" height="10" fill="#EF7D57"/>
<rect x="660" y="60" width="10" height="10" fill="#EF7D57"/>
<rect x="740" y="60" width="10" height="10" fill="#EF7D57"/>
<rect x="770" y="60" width="10" height="10" fill="#EF7D57"/>
<rect x="800" y="60" width="10" height="10" fill="#EF7D57"/>
<rect x="830" y="60" width="10" height="10" fill="#EF7D57"/>
<rect x="870" y="60" width="10" height="10" fill="#EF7D57"/>
<rect x="910" y="60" width="10" height="10" fill="#EF7D57"/>
<rect x="950" y="60" width="10" height="10" fill="#EF7D57"/>
<rect x="970" y="60" width="10" height="10" fill="#EF7D57"/>
<rect x="990" y="60" width="10" height="10" fill="#EF7D57"/>
<rect x="1030" y="60" width="10" height="10" fill="#EF7D57"/>
<rect x="1060" y="60" width="10" height="10" fill="#EF7D57"/>
<rect x="1080" y="60" width="10" height="10" fill="#EF7D57"/>
<rect x="20" y="70" width="10" height="10" fill="#EF7D57"/>
<rect x="80" y="70" width="10" height="10" fill="#EF7D57"/>
<rect x="100" y="70" width="10" height="10" fill="#EF7D57"/>
<rect x="160" y="70" width="10" height="10" fill="#EF7D57"/>
<rect x="190" y="70" width="10" height="10" fill="#EF7D57"/>
<rect x="230" y="70" width="10" height="10" fill="#EF7D57"/>
<rect x="300" y="70" width="10" height="10" fill="#EF7D57"/>
<rect x="360" y="70" width="10" height="10" fill="#EF7D57"/>
<rect x="420" y="70" width="10" height="10" fill="#EF7D57"/>
<rect x="440" y="70" width="10" height="10" fill="#EF7D57"/>
<rect x="480" y="70" width="10" height="10" fill="#EF7D57"/>
<rect x="530" y="70" width="10" height="10" fill="#EF7D57"/>
<rect x="580" y="70" width="10" height="10" fill="#EF7D57"/>
<rect x="630" y="70" width="10" height="10" fill="#EF7D57"/>
<rect x="670" y="70" width="10" height="10" fill="#EF7D57"/>
<rect x="740" y="70" width="10" height="10" fill="#EF7D57"/>
<rect x="780" y="70" width="10" height="10" fill="#EF7D57"/>
<rect x="800" y="70" width="10" height="10" fill="#EF7D57"/>
<rect x="840" y="70" width="10" height="10" fill="#EF7D57"/>
<rect x="870" y="70" width="10" height="10" fill="#EF7D57"/>
<rect x="910" y="70" width="10" height="10" fill="#EF7D57"/>
<rect x="950" y="70" width="10" height="10" fill="#EF7D57"/>
<rect x="970" y="70" width="10" height="10" fill="#EF7D57"/>
<rect x="990" y="70" width="10" height="10" fill="#EF7D57"/>
<rect x="1030" y="70" width="10" height="10" fill="#EF7D57"/>
<rect x="1060" y="70" width="10" height="10" fill="#EF7D57"/>
<rect x="1080" y="70" width="10" height="10" fill="#EF7D57"/>
<rect x="20" y="80" width="10" height="10" fill="#EF7D57"/>
<rect x="80" y="80" width="10" height="10" fill="#EF7D57"/>
<rect x="100" y="80" width="10" height="10" fill="#EF7D57"/>
<rect x="160" y="80" width="10" height="10" fill="#EF7D57"/>
<rect x="180" y="80" width="10" height="10" fill="#EF7D57"/>
<rect x="240" y="80" width="10" height="10" fill="#EF7D57"/>
<rect x="300" y="80" width="10" height="10" fill="#EF7D57"/>
<rect x="310" y="80" width="10" height="10" fill="#EF7D57"/>
<rect x="320" y="80" width="10" height="10" fill="#EF7D57"/>
<rect x="330" y="80" width="10" height="10" fill="#EF7D57"/>
<rect x="340" y="80" width="10" height="10" fill="#EF7D57"/>
<rect x="360" y="80" width="10" height="10" fill="#EF7D57"/>
<rect x="420" y="80" width="10" height="10" fill="#EF7D57"/>
<rect x="440" y="80" width="10" height="10" fill="#EF7D57"/>
<rect x="480" y="80" width="10" height="10" fill="#EF7D57"/>
<rect x="490" y="80" width="10" height="10" fill="#EF7D57"/>
<rect x="530" y="80" width="10" height="10" fill="#EF7D57"/>
<rect x="580" y="80" width="10" height="10" fill="#EF7D57"/>
<rect x="590" y="80" width="10" height="10" fill="#EF7D57"/>
<rect x="600" y="80" width="10" height="10" fill="#EF7D57"/>
<rect x="610" y="80" width="10" height="10" fill="#EF7D57"/>
<rect x="630" y="80" width="10" height="10" fill="#EF7D57"/>
<rect x="670" y="80" width="10" height="10" fill="#EF7D57"/>
<rect x="680" y="80" width="10" height="10" fill="#EF7D57"/>
<rect x="740" y="80" width="10" height="10" fill="#EF7D57"/>
<rect x="750" y="80" width="10" height="10" fill="#EF7D57"/>
<rect x="760" y="80" width="10" height="10" fill="#EF7D57"/>
<rect x="770" y="80" width="10" height="10" fill="#EF7D57"/>
<rect x="800" y="80" width="10" height="10" fill="#EF7D57"/>
<rect x="840" y="80" width="10" height="10" fill="#EF7D57"/>
<rect x="850" y="80" width="10" height="10" fill="#EF7D57"/>
<rect x="870" y="80" width="10" height="10" fill="#EF7D57"/>
<rect x="880" y="80" width="10" height="10" fill="#EF7D57"/>
<rect x="890" y="80" width="10" height="10" fill="#EF7D57"/>
<rect x="900" y="80" width="10" height="10" fill="#EF7D57"/>
<rect x="910" y="80" width="10" height="10" fill="#EF7D57"/>
<rect x="950" y="80" width="10" height="10" fill="#EF7D57"/>
<rect x="960" y="80" width="10" height="10" fill="#EF7D57"/>
<rect x="980" y="80" width="10" height="10" fill="#EF7D57"/>
<rect x="990" y="80" width="10" height="10" fill="#EF7D57"/>
<rect x="1030" y="80" width="10" height="10" fill="#EF7D57"/>
<rect x="1070" y="80" width="10" height="10" fill="#EF7D57"/>
<rect x="1080" y="80" width="10" height="10" fill="#EF7D57"/>
</svg>
